<svg width="140" height="35" viewBox="0 0 140 35" fill="none" xmlns="http://www.w3.org/2000/svg">
<g id="logo">
<g id="Group 81">
<path id="Polygon 77" d="M22.8045 0L26.6676 6.65335H22.8045H18.9414L22.8045 0Z" fill="white"/>
<g id="Group 61">
<path id="Polygon 69" d="M26.61 6.65234L30.4195 13.3057H22.8006L18.9375 6.65234H26.61Z" fill="white"/>
</g>
<g id="Group 62">
<path id="Polygon 68" d="M15.0799 13.3086L18.943 19.9619H11.2168L15.0799 13.3086Z" fill="#E5E9EC"/>
<path id="Polygon 67" d="M30.4264 13.3086L34.2895 19.9619H26.5633L22.7539 13.3086H30.4264Z" fill="white"/>
</g>
<g id="Group 63">
<path id="Polygon 61" d="M11.324 19.9609L18.9966 19.9609L15.1871 26.6143H7.46094L11.324 19.9609Z" fill="white"/>
<path id="Polygon 63" d="M22.7518 19.9609H34.341L30.5316 26.6143H18.8887L22.7518 19.9609Z" fill="#3986FF"/>
<path id="Polygon 64" d="M34.3414 19.9609L38.1509 26.6143H30.532L26.6152 19.9609H34.3414Z" fill="white"/>
</g>
<g id="Group 64">
<path id="Polygon 56" d="M7.45489 26.6094H15.1274L11.318 33.2627H3.5918L7.45489 26.6094Z" fill="white"/>
<path id="Polygon 60" d="M38.1452 26.6094L34.2821 33.2627L30.4727 26.6094H38.1452Z" fill="white"/>
</g>
<path id="Vector 117" d="M15.1833 0.206551H22.5701L18.8353 6.61487L18.8351 6.61532L3.60355 32.9202L0.210019 26.8817L15.1833 0.206551Z" stroke="white" stroke-width="0.366228"/>
<path id="Vector 118" d="M18.832 26.6133L22.2122 33.3739H34.2844" stroke="white" stroke-width="0.366228"/>
<line id="Line 10" y1="-0.183114" x2="8.20736" y2="-0.183114" transform="matrix(0.505705 0.862706 -0.862689 0.505734 26.0625 19.7969)" stroke="#3986FF" stroke-width="0.366228"/>
</g>
<path id="Anycubic Slicer" d="M42.8246 14.6328L46.9911 6.53369L48.4117 9.31425L45.6744 14.6328H42.8246ZM52.7341 14.6328L51.7033 12.6492H48.1605L49.4338 10.1631H50.4386L47.762 5.00049L49.1999 2.2286L55.5926 14.6328H52.7341ZM57.5316 14.6328V7.65111L60.0869 9.88595V14.6328H57.5316ZM57.5316 5.77142V2.39318L65.4488 9.39221V2.77431H68.0041V15.0139L57.5316 5.77142ZM73.5119 14.6328V8.55198L77.739 2.77431H80.892L76.0672 9.38354V14.6328H73.5119ZM72.611 7.26998L69.432 2.77431H72.5504L74.1962 5.1131L72.611 7.26998ZM86.9022 12.3893V14.962C85.6952 14.7887 84.65 14.3585 83.7665 13.6713C82.9869 13.0707 82.3834 12.3316 81.9561 11.4538C81.5403 10.5991 81.3324 9.69249 81.3324 8.73388C81.3324 7.31329 81.7626 6.04284 82.6231 4.92253C83.6625 3.56546 85.0889 2.75122 86.9022 2.4798V5.06113C86.1861 5.23437 85.5971 5.52599 85.1351 5.936C84.7482 6.28249 84.4421 6.70405 84.2169 7.20068C83.9975 7.69731 83.8877 8.20838 83.8877 8.73388C83.8877 9.49615 84.1072 10.1978 84.5461 10.8388C85.0773 11.6068 85.8627 12.1237 86.9022 12.3893ZM88.3228 14.962V12.3807C89.2467 12.1959 90.0003 11.7252 90.5836 10.9687L92.6019 12.5279C91.4873 13.9485 90.061 14.7599 88.3228 14.962ZM88.3228 5.06113V2.4798C89.2294 2.60685 90.0321 2.8696 90.7308 3.26806C91.4296 3.66074 92.0446 4.20357 92.5759 4.89654L90.5749 6.48172C89.9859 5.7079 89.2352 5.23437 88.3228 5.06113ZM95.6929 2.77431H98.2482V9.30558C98.2482 10.2122 98.3579 10.8705 98.5774 11.2806C98.8026 11.6906 99.227 12.0168 99.8507 12.2594V14.8667C99.2906 14.7685 98.7564 14.5808 98.2482 14.3037C97.74 14.0265 97.2983 13.68 96.9229 13.2642C96.484 12.7849 96.1693 12.2565 95.9787 11.679C95.7882 11.1015 95.6929 10.3884 95.6929 9.53946V2.77431ZM102.891 2.77431H105.446V9.53946C105.446 10.3884 105.351 11.1015 105.161 11.679C104.97 12.2565 104.655 12.7849 104.216 13.2642C103.835 13.6857 103.388 14.0351 102.874 14.3123C102.36 14.5895 101.823 14.7743 101.263 14.8667V12.2594C101.886 12.0399 102.314 11.7223 102.545 11.3065C102.776 10.885 102.891 10.218 102.891 9.30558V2.77431ZM109.118 14.6328V2.77431H111.673V14.6328H109.118ZM113.094 14.6328V12.1381H113.917C114.408 12.1381 114.766 12.0977 114.991 12.0168C115.435 11.8609 115.658 11.526 115.658 11.012C115.658 10.9485 115.649 10.8648 115.632 10.7608C116.498 10.6396 117.243 10.2267 117.867 9.52214C118.075 10.0072 118.178 10.5212 118.178 11.064C118.178 11.6473 118.046 12.2016 117.78 12.7271C117.514 13.2469 117.151 13.6684 116.689 13.9918C116.336 14.2344 115.961 14.4018 115.562 14.4942C115.17 14.5866 114.627 14.6328 113.934 14.6328H113.094ZM113.094 9.95525V7.46921H113.917C114.442 7.46921 114.82 7.41723 115.051 7.31329C115.438 7.12849 115.632 6.80799 115.632 6.35179C115.632 5.95333 115.476 5.66459 115.164 5.48557C114.939 5.35853 114.552 5.295 114.003 5.295H113.094V2.77431H113.735C114.503 2.77431 115.098 2.82629 115.519 2.93023C115.941 3.03418 116.339 3.22475 116.715 3.50194C117.656 4.20068 118.126 5.14486 118.126 6.33446C118.126 7.58181 117.653 8.55775 116.706 9.26227C116.359 9.51636 115.981 9.69538 115.571 9.79933C115.167 9.90327 114.639 9.95525 113.986 9.95525H113.094ZM121.399 14.6328V2.77431H123.955V14.6328H121.399ZM132.771 12.3893V14.962C131.565 14.7887 130.519 14.3585 129.636 13.6713C128.856 13.0707 128.253 12.3316 127.825 11.4538C127.41 10.5991 127.202 9.69249 127.202 8.73388C127.202 7.31329 127.632 6.04284 128.492 4.92253C129.532 3.56546 130.958 2.75122 132.771 2.4798V5.06113C132.055 5.23437 131.466 5.52599 131.004 5.936C130.617 6.28249 130.311 6.70405 130.086 7.20068C129.867 7.69731 129.757 8.20838 129.757 8.73388C129.757 9.49615 129.976 10.1978 130.415 10.8388C130.947 11.6068 131.732 12.1237 132.771 12.3893ZM134.192 14.962V12.3807C135.116 12.1959 135.87 11.7252 136.453 10.9687L138.471 12.5279C137.357 13.9485 135.93 14.7599 134.192 14.962ZM134.192 5.06113V2.4798C135.099 2.60685 135.901 2.8696 136.6 3.26806C137.299 3.66074 137.914 4.20357 138.445 4.89654L136.444 6.48172C135.855 5.7079 135.104 5.23437 134.192 5.06113ZM44.2972 28.0727H46.8179C46.8756 28.4827 46.9998 28.7945 47.1903 29.0082C47.456 29.3142 47.8024 29.4673 48.2298 29.4673C48.6167 29.4673 48.9401 29.3345 49.1999 29.0688C49.4656 28.7974 49.5984 28.4625 49.5984 28.064C49.5984 27.7522 49.5204 27.4952 49.3645 27.2931C49.2144 27.091 48.9661 26.9119 48.6196 26.756L49.7803 24.4865C51.3626 25.2026 52.1537 26.3778 52.1537 28.012C52.1537 29.0573 51.8073 29.9581 51.1143 30.7146C50.3462 31.5462 49.3818 31.962 48.2211 31.962C47.3376 31.962 46.5522 31.7021 45.865 31.1824C44.8949 30.4432 44.3722 29.4066 44.2972 28.0727ZM51.608 22.9966H48.9661C48.8794 22.321 48.5705 21.9832 48.0392 21.9832C47.7736 21.9832 47.5484 22.0756 47.3636 22.2604C47.1845 22.4451 47.095 22.679 47.095 22.962C47.095 23.3374 47.2712 23.6088 47.6234 23.7762C47.7274 23.8282 47.9815 23.9004 48.3857 23.9928L47.225 26.2883C46.5147 26.0919 45.9661 25.8147 45.5792 25.4567C44.8862 24.8099 44.5397 23.9784 44.5397 22.962C44.5397 22.0265 44.8487 21.2296 45.4666 20.5712C46.148 19.8436 47.0113 19.4798 48.0565 19.4798C48.8592 19.4798 49.5638 19.6992 50.1701 20.1381C51.0594 20.7849 51.5387 21.7377 51.608 22.9966ZM55.3833 31.6328V19.7743H57.9387V31.6328H55.3833ZM59.0474 31.6328V29.1468H62.4777V31.6328H59.0474ZM65.0836 31.6328V19.7743H67.6389V31.6328H65.0836ZM76.4556 29.3893V31.962C75.2487 31.7887 74.2034 31.3585 73.3199 30.6713C72.5403 30.0707 71.9368 29.3316 71.5095 28.4538C71.0937 27.5991 70.8858 26.6925 70.8858 25.7339C70.8858 24.3133 71.3161 23.0428 72.1765 21.9225C73.216 20.5655 74.6423 19.7512 76.4556 19.4798V22.0611C75.7395 22.2344 75.1505 22.526 74.6885 22.936C74.3016 23.2825 73.9956 23.704 73.7703 24.2007C73.5509 24.6973 73.4412 25.2084 73.4412 25.7339C73.4412 26.4962 73.6606 27.1978 74.0995 27.8388C74.6308 28.6068 75.4161 29.1237 76.4556 29.3893ZM77.8762 31.962V29.3807C78.8002 29.1959 79.5538 28.7252 80.137 27.9687L82.1553 29.5279C81.0408 30.9485 79.6144 31.7599 77.8762 31.962ZM77.8762 22.0611V19.4798C78.7828 19.6068 79.5855 19.8696 80.2843 20.2681C80.983 20.6607 81.598 21.2036 82.1293 21.8965L80.1284 23.4817C79.5393 22.7079 78.7886 22.2344 77.8762 22.0611ZM85.3676 31.6328V19.7743H87.9229V31.6328H85.3676ZM89.3695 31.6328V29.1468H94.0384V31.6328H89.3695ZM89.3695 26.9552V24.4692H94.0384V26.9552H89.3695ZM89.3695 22.2604V19.7743H94.0384V22.2604H89.3695ZM97.6838 31.6328V19.7743H100.239V31.6328H97.6838ZM101.677 26.9466V24.4519H102.509C102.999 24.4519 103.355 24.4057 103.574 24.3133C103.984 24.14 104.189 23.8195 104.189 23.3518C104.189 22.9649 104.042 22.679 103.747 22.4942C103.522 22.3499 103.15 22.2777 102.63 22.2777H101.677V19.7743H102.483C103.216 19.7743 103.799 19.8378 104.232 19.9649C104.671 20.0862 105.076 20.3027 105.445 20.6145C105.844 20.9495 106.152 21.3595 106.372 21.8446C106.597 22.3239 106.71 22.8263 106.71 23.3518C106.71 23.8888 106.591 24.4057 106.355 24.9023C106.124 25.3989 105.803 25.8176 105.393 26.1583C105.041 26.4471 104.66 26.6521 104.25 26.7733C103.84 26.8888 103.306 26.9466 102.647 26.9466H101.677ZM103.955 31.6328L102.665 27.9947C103.681 27.9716 104.524 27.7868 105.194 27.4403L106.658 31.6328H103.955Z" fill="white"/>
</g>
</svg>
