<svg width="17" height="17" viewBox="0 0 17 17" fill="none" xmlns="http://www.w3.org/2000/svg">
<g id="QuestionCircle">
<g id="Vector">
<path d="M8.67188 1.04248C4.80625 1.04248 1.67188 4.17686 1.67188 8.04248C1.67188 11.9081 4.80625 15.0425 8.67188 15.0425C12.5375 15.0425 15.6719 11.9081 15.6719 8.04248C15.6719 4.17686 12.5375 1.04248 8.67188 1.04248ZM8.67188 13.855C5.4625 13.855 2.85938 11.2519 2.85938 8.04248C2.85938 4.83311 5.4625 2.22998 8.67188 2.22998C11.8813 2.22998 14.4844 4.83311 14.4844 8.04248C14.4844 11.2519 11.8813 13.855 8.67188 13.855Z" fill="#398DFF"/>
<path d="M10.4154 4.99043C9.94663 4.57949 9.32788 4.35449 8.67163 4.35449C8.01538 4.35449 7.39663 4.58105 6.92788 4.99043C6.44038 5.41699 6.17163 5.99043 6.17163 6.60449V6.72324C6.17163 6.79199 6.22788 6.84824 6.29663 6.84824H7.04663C7.11538 6.84824 7.17163 6.79199 7.17163 6.72324V6.60449C7.17163 5.91543 7.84507 5.35449 8.67163 5.35449C9.49819 5.35449 10.1716 5.91543 10.1716 6.60449C10.1716 7.09043 9.82788 7.53574 9.29507 7.74043C8.96382 7.86699 8.68257 8.08887 8.48101 8.37949C8.27632 8.67637 8.17007 9.03262 8.17007 9.39356V9.72949C8.17007 9.79824 8.22632 9.85449 8.29507 9.85449H9.04507C9.11382 9.85449 9.17007 9.79824 9.17007 9.72949V9.37481C9.17088 9.22312 9.21738 9.0752 9.3035 8.95033C9.38963 8.82546 9.51138 8.72945 9.65288 8.67481C10.5748 8.32012 11.1701 7.50762 11.1701 6.60449C11.1716 5.99043 10.9029 5.41699 10.4154 4.99043ZM8.04663 11.4795C8.04663 11.6453 8.11248 11.8042 8.22969 11.9214C8.3469 12.0386 8.50587 12.1045 8.67163 12.1045C8.83739 12.1045 8.99636 12.0386 9.11357 11.9214C9.23078 11.8042 9.29663 11.6453 9.29663 11.4795C9.29663 11.3137 9.23078 11.1548 9.11357 11.0376C8.99636 10.9203 8.83739 10.8545 8.67163 10.8545C8.50587 10.8545 8.3469 10.9203 8.22969 11.0376C8.11248 11.1548 8.04663 11.3137 8.04663 11.4795Z" fill="#398DFF"/>
</g>
</g>
</svg>
