<svg width="24" height="24" viewBox="0 0 24 24" fill="none" xmlns="http://www.w3.org/2000/svg">
<path d="M17.3573 8.116V6.68601C17.3573 5.98255 17.2188 5.28598 16.9495 4.63609C16.6803 3.98619 16.2856 3.3957 15.7881 2.89834C15.2906 2.40098 14.7 2.00648 14.0501 1.7374C13.4001 1.46831 12.7035 1.32991 12 1.33008C11.2965 1.32991 10.5999 1.46831 9.94995 1.7374C9.29998 2.00648 8.70937 2.40098 8.21188 2.89834C7.7144 3.3957 7.31975 3.98619 7.0505 4.63609C6.78126 5.28598 6.64267 5.98255 6.64267 6.68601V8.116C5.87629 8.29606 5.19385 8.73119 4.70727 9.35005C4.22068 9.9689 3.95883 10.7347 3.96467 11.522V19.2738C3.95425 20.1874 4.30653 21.0679 4.94427 21.7222C5.58201 22.3765 6.45318 22.7512 7.36677 22.7642H16.6345C17.5479 22.7509 18.4187 22.376 19.0561 21.7217C19.6936 21.0674 20.0457 20.1872 20.0353 19.2738V11.522C20.0411 10.7347 19.7792 9.9689 19.2927 9.35005C18.8061 8.73119 18.1236 8.29606 17.3573 8.116ZM7.9817 6.68601C7.98308 5.62085 8.40691 4.59972 9.16022 3.84666C9.91354 3.0936 10.9348 2.67009 12 2.66906C13.0652 2.67009 14.0865 3.0936 14.8398 3.84666C15.5931 4.59972 16.0169 5.62085 16.0183 6.68601V8.0263H7.9817V6.68601ZM18.6963 19.2673C18.7015 19.82 18.4874 20.3522 18.101 20.7475C17.7145 21.1427 17.1872 21.3686 16.6345 21.3758H7.36677C6.81384 21.369 6.28616 21.1432 5.89944 20.7479C5.51271 20.3527 5.2985 19.8202 5.30371 19.2673V11.5167C5.29816 10.9636 5.51227 10.4308 5.89904 10.0352C6.2858 9.63971 6.81361 9.41374 7.36677 9.40688H16.6345C17.1874 9.41408 17.715 9.64021 18.1014 10.0357C18.4879 10.4312 18.7019 10.9638 18.6963 11.5167V19.2673Z" fill="#7F7F7F"/>
<path d="M12.039 13.3892H11.961C11.243 13.3892 10.661 13.9712 10.661 14.6891V16.1074C10.661 16.8254 11.243 17.4074 11.961 17.4074H12.039C12.7569 17.4074 13.339 16.8254 13.339 16.1074V14.6891C13.339 13.9712 12.7569 13.3892 12.039 13.3892Z" fill="#7F7F7F"/>
</svg>
